<svg width="750" height="750" viewBox="0 0 750 750" fill="none" xmlns="http://www.w3.org/2000/svg">
<circle cx="375" cy="375" r="375" fill="url(#paint0_linear_8_94)"/>
<path d="M196.5 314L218.5 305L208.5 314.5L196.5 314Z" fill="#D08E74"/>
<path d="M218 305.5L208.5 314.5L224 334L218 305.5Z" fill="#FBB89B"/>
<path d="M224 334L208.5 314.5L221.5 336.5L224 334Z" fill="#A3654C"/>
<path d="M221.5 336.5L208.5 314.5L209 323L221.5 336.5Z" fill="#C78467"/>
<path d="M210 323L208.5 314.5L196.5 314L210 323Z" fill="#A96455"/>
<path d="M234 382L221 336.5L224 333.5L234 382Z" fill="#B7755B"/>
<path d="M229.5 394.5L234 381L233 399L229.5 394.5Z" fill="#D4A589"/>
<path d="M221.5 337L229.5 394.5L234 381.5L221.5 337Z" fill="#DFA486"/>
<path d="M229 447L216 432.5L233 398L229 447Z" fill="#E0A57B"/>
<path d="M559.5 382.5L543.5 408L536 441L559.5 382.5Z" fill="#DE9D87"/>
<path d="M560 382.5L560.5 360L543 409L560 382.5Z" fill="#DFAC9B"/>
<path d="M560.5 360L542.5 374.5L543 409L560.5 360Z" fill="#D08873"/>
<path d="M560.5 360L542.5 374.5L556 346L560.5 360Z" fill="#E0A58E"/>
<path d="M452.5 482.5L423 460.5L451.5 459L452.5 482.5Z" fill="#AD7F68"/>
<path d="M428.5 451.5L420.5 461L451 459.5L428.5 451.5Z" fill="#C0917D"/>
<path d="M385.5 446.5H373L384 463.5L385.5 446.5Z" fill="#EAAE9C"/>
<path d="M373 446.5L359.5 451.5L384 463.5L373 446.5Z" fill="#C28775"/>
<path d="M382.5 442.5L372 446.5H386L382.5 442.5Z" fill="#E09D8D"/>
<path d="M385.5 446L383.5 464L402 462.5L385.5 446Z" fill="#CEAEA3"/>
<path d="M443.5 426L401.5 462.5L430 451.5L443.5 426Z" fill="#E1A38C"/>
<path d="M429.5 451L420.5 461L401.5 462.5L429.5 451Z" fill="#C5887B"/>
<path d="M401.5 462.5L400 430.5L382 442.5L401.5 462.5Z" fill="#E9AB92"/>
<path d="M360 451.5L363 420.5L383 442.5L360 451.5Z" fill="#D5977E"/>
<path d="M401.5 462.5L400 430.5L444 425.5L401.5 462.5Z" fill="#F8C5B0"/>
<path d="M486.5 383.5L441.5 384.5L466 372L486.5 383.5Z" fill="#E09B8C"/>
<path d="M451 362.5L441.5 384.5L466.5 372L451 362.5Z" fill="#C9927E"/>
<path d="M461 556L453 543.5L470 530L461 556Z" fill="#1F1E1A"/>
<path d="M469.5 530L451.5 517.5L454.5 544L469.5 530Z" fill="#674A3C"/>
<path d="M455 544.5L443.5 524.5L451.5 517.5L455 544.5Z" fill="#81493A"/>
<path d="M451.5 517.5L403.5 495.5L423 496.5L451.5 517.5Z" fill="#FDC6C3"/>
<path d="M403 495.5L388 497L422 501.5L403 495.5Z" fill="#BC8B75"/>
<path d="M423 461L383.5 463.5L403.5 480.5L423 461Z" fill="#422B25"/>
<path d="M417.5 518L400.5 506L444.5 524.5L417.5 518Z" fill="#8F4046"/>
<path d="M418 518L384.5 521.5L444.5 524.5L418 518Z" fill="#B6606B"/>
<path d="M383 521.5L338.5 510.5L418 518L383 521.5Z" fill="#C26874"/>
<path d="M402 506.5L388 497L422 501.5L402 506.5Z" fill="#CD8F82"/>
<path d="M343 511.5L332.5 503L389 497L343 511.5Z" fill="#D89E88"/>
<path d="M367 549.5L324 508.5L332.5 502.5L367 549.5Z" fill="#8D593C"/>
<path d="M444 525L421.5 501.5L452 517.5L444 525Z" fill="#AB5854"/>
<path d="M444 524L423 553.5L461.5 556.5L444 524Z" fill="#A96F63"/>
<path d="M484.5 383.5L451 362.5L488.5 373L484.5 383.5Z" fill="#886150"/>
<path d="M478 558.5L480.5 501.5L527.5 471.5L478 558.5Z" fill="#8D6453"/>
<path d="M488 373L484 383.5L503 369.5L488 373Z" fill="#87695E"/>
<path d="M518 383.5H484L502.5 369.5L518 383.5Z" fill="#3E1718"/>
<path d="M494.5 362.5L486.5 356L488 373L494.5 362.5Z" fill="#2A201E"/>
<path d="M488 373L486 356.5L479 371.5L488 373Z" fill="#353E39"/>
<path d="M494.5 362.5C492.5 365.833 488.4 372.6 488 373L503 369.5L494.5 362.5Z" fill="#E3DFDE"/>
<path d="M486.5 356H467.5L479.5 371.5L486.5 356Z" fill="#292427"/>
<path d="M456 349L451 362.5L481.5 350.5L456 349Z" fill="#6D4134"/>
<path d="M468 356L450.5 362.5L479.5 371.5L468 356Z" fill="#FFFAFF"/>
<path d="M377 358L342 352L337.5 364L377 358Z" fill="#AA736C"/>
<path d="M342.5 352.5L325.5 350L348.5 343.5L342.5 352.5Z" fill="#25080D"/>
<path d="M348.5 343.5L364.5 351.5L342.5 352.5L348.5 343.5Z" fill="#E9E3E7"/>
<path d="M444 524.5L381.5 521L432 531.5L444 524.5Z" fill="#D57C85"/>
<path d="M367.5 549L332 502.5L395.5 551L367.5 549Z" fill="#EA9495"/>
<path d="M437.5 532.5L339 510.5L395 551L437.5 532.5Z" fill="#DF969D"/>
<path d="M422 501.5L401 506.5L444 524.5L422 501.5Z" fill="#BB6E66"/>
<path d="M388.5 497L343 511L418.5 518L388.5 497Z" fill="#D47A71"/>
<path d="M448 401L432.5 360.5L451 453L448 401Z" fill="#BF8C71"/>
<path d="M432.5 360L450.5 450L421 352L432.5 360Z" fill="#E8AA91"/>
<path d="M329.5 333L321.5 340L338 338.5L329.5 333Z" fill="#321C11"/>
<path d="M443.5 426L399.705 430.5L431.5 387.5L443.5 426Z" fill="#F2BBA7"/>
<path d="M441.5 384.5L432 360L457 348.5L441.5 384.5Z" fill="#915844"/>
<path d="M542 354.5L456.5 349L494.5 330.5L542 354.5Z" fill="#38302E"/>
<path d="M541 354L494.5 330.5H527L541 354Z" fill="#AA7B64"/>
<path d="M377 358L338 363.5L376.5 366L377 358Z" fill="#F2B598"/>
<path d="M311.5 347.5L294.5 360L338.5 363.5L311.5 347.5Z" fill="#BF856F"/>
<path d="M518 383L481 350L541 354.5L518 383Z" fill="#986852"/>
<path d="M518 383L441.5 384.5L493 415.5L518 383Z" fill="#E2B29C"/>
<path d="M208.394 368L207 400.5L232.758 398.5L208.394 368Z" fill="#F2AD9D"/>
<path d="M221.5 336.5L210 323L208.394 368L221.5 336.5Z" fill="#E4A68D"/>
<path d="M196.5 314L186 342L210 323L196.5 314Z" fill="#D08B7C"/>
<path d="M186 341L192 402.5L207 401L186 341Z" fill="#FFB39B"/>
<path d="M281 210.5L218 305.5L272.5 282L281 210.5Z" fill="#6D5950"/>
<path d="M560 216L480 108.5L515 133.5L560 216Z" fill="#363C41"/>
<path d="M444 524.5L393 552H423.5L444 524.5Z" fill="#DF9C94"/>
<path d="M480 108.5L318 99.0872L360.5 85.0872L480 108.5Z" fill="#2C2B31"/>
<path d="M338 363.5L309.5 348L343 352L338 363.5Z" fill="#916962"/>
<path d="M538 238.5L420 211.5L480 108.5L538 238.5Z" fill="#222222"/>
<path d="M480 108.5L318 99L421 211.5L480 108.5Z" fill="#141414"/>
<path d="M336.5 337.5L327 350L348.5 343.5L336.5 337.5Z" fill="#090001"/>
<path d="M327 350L322 340L337 337.5L327 350Z" fill="#191411"/>
<path d="M422 211.5H279L318 98L422 211.5Z" fill="#635554"/>
<path d="M280 211.5L228.5 197.5L318 97.5L280 211.5Z" fill="#1B1B1B"/>
<path d="M318 98L228.5 197L247.5 149.5L318 98Z" fill="#141319"/>
<path d="M228.5 196.5L218 305.5L280 210.5L228.5 196.5Z" fill="#0D130F"/>
<path d="M480.5 501.5L423 496.5L471 531.5L480.5 501.5Z" fill="#130711"/>
<path d="M423 460.5L480.5 502L423 496.5V460.5Z" fill="#38363B"/>
<path d="M404.5 495.5L331.5 503L383.5 463.5L404.5 495.5Z" fill="#312A2C"/>
<path d="M363 419.5L313.5 484.5L358.5 471.5L363 419.5Z" fill="#E5AB94"/>
<path d="M480.5 502L452.5 481.5L447.5 401L480.5 502Z" fill="#EA9D89"/>
<path d="M400 431L422.5 351.5L432 389L400 431Z" fill="#E2A992"/>
<path d="M400 431L402.5 318.5L423.5 351.5L400 431Z" fill="#F8BAA1"/>
<path d="M446 328.5L402.5 318.5L423.5 352.5L446 328.5Z" fill="#E8A588"/>
<path d="M389.5 367.5L403 318.5L375.5 367.5H389.5Z" fill="#C78970"/>
<path d="M378.5 337L353.5 308.5L387.5 337H378.5Z" fill="#3A1C14"/>
<path d="M378 336.5L297 324L353.5 308L378 336.5Z" fill="#4E484C"/>
<path d="M332.5 303L297 324L353.5 308L332.5 303Z" fill="#4D3A33"/>
<path d="M389.5 367L294.5 360L304 384.5L389.5 367Z" fill="#D5977E"/>
<path d="M541.5 352.5L536 442L493 415.5L541.5 352.5Z" fill="#D6A690"/>
<path d="M536.5 440.5L480.5 502L441.5 384.5L536.5 440.5Z" fill="#F0B299"/>
<path d="M496 285.5L445.5 328.5L526.5 331.5L496 285.5Z" fill="#E1A38A"/>
<path d="M445 329.5V273L496.5 286L445 329.5Z" fill="#D99A89"/>
<path d="M446 272.5L332 303L446 328.5V272.5Z" fill="#E8B7A8"/>
<path d="M423 496.5L383.5 463.5L403.5 495.5L423 496.5Z" fill="#000004"/>
<path d="M541.5 354L545.5 297.5L496 286.5L541.5 354Z" fill="#BB8569"/>
<path d="M322 339.5L310 348.5L327 350L322 339.5Z" fill="#9D8D8D"/>
<path d="M545 298L446.5 274.5L538.5 238L545 298Z" fill="#C79072"/>
<path d="M539.5 238L423.5 211L446.5 274.5L539.5 238Z" fill="#D99B82"/>
<path d="M368.5 294L336 252.5L447 273L368.5 294Z" fill="#EEAF9E"/>
<path d="M424 210.5L335 252.5L446.5 273L424 210.5Z" fill="#E7B5A0"/>
<path d="M271.5 281.5L265 362L337.5 249.5L271.5 281.5Z" fill="#C1836A"/>
<path d="M272.501 281.999C272.5 282.003 272.5 282.004 272.5 282L272.501 281.999C272.594 281.561 277.857 234.623 280.5 211H423.5L272.501 281.999Z" fill="#D08D70"/>
<path d="M265 362.5L249.5 323.5L272.5 281.5L265 362.5Z" fill="#93654E"/>
<path d="M390 367L363.5 420.5L303 384L390 367Z" fill="#ECA891"/>
<path d="M363.5 419.5L314.5 484.5L263.5 360.5L363.5 419.5Z" fill="#F4B5A3"/>
<path d="M281.5 503L256 476L253 331.5L281.5 503Z" fill="#C49375"/>
<path d="M234 382.5L229 446.889L256 476L234 382.5Z" fill="#CE9480"/>
<path d="M324 508.5L367 549H320.5L324 508.5Z" fill="#CE9480"/>
<path d="M347 665L278.52 543L480 557L347 665Z" fill="#202020"/>
<path d="M278.5 543L216.106 432.725L322 546.5L278.5 543Z" fill="#2E2E2E"/>
<path d="M442 664L345.606 663.225L479.5 555.5L442 664Z" fill="#131218"/>
<path d="M213 531.5L218.5 437.5L257 600.5L213 531.5Z" fill="#CC937F"/>
<path d="M345.606 663.225L256.606 599.725L216.106 432.725L345.606 663.225Z" fill="#030303"/>
<path d="M530.5 538.5L442.5 664L478 557.5L530.5 538.5Z" fill="#18171D"/>
<path d="M530.5 539L477.5 558L527.5 470.5L530.5 539Z" fill="#292929"/>
<path d="M191.478 401.988L216.106 432.725L232.758 398.5L191.478 401.988Z" fill="#E6A78E"/>
<path d="M253 332L324.5 508.5L281 503L253 332Z" fill="#D89A81"/>
<path d="M253 331.5L234 382.5L256 476L253 331.5Z" fill="#A67058"/>
<path d="M369 294C344.667 300 295.5 312.7 293.5 315.5L336 252L369 294Z" fill="#E5A488"/>
<path d="M284 332L304.5 384.5L264.5 362L284 332Z" fill="#E5A889"/>
<path d="M295 314L284.5 331.5L333 303L295 314Z" fill="#40241A"/>
<path d="M387 337L352 307.5L403 318.5L387 337Z" fill="#DFB19A"/>
<path d="M378 336.5L403 318.5L376.5 366L378 336.5Z" fill="#B37E68"/>
<path d="M362.5 422L403 319L400.5 400L362.5 422Z" fill="#E3A083"/>
<path d="M384.5 463.5L324.5 509L314.5 484L384.5 463.5Z" fill="#2C2721"/>
<path d="M538 239.5L480 108L560.5 216L538 239.5Z" fill="#3C3C3C"/>
<path d="M272 281L218 305L234 382.5L272 281Z" fill="#8E6352"/>
<path d="M416.5 85H360L479.5 108.5L416.5 85Z" fill="#25242A"/>
<path d="M210 323L200.5 382.5L186 341.5L210 323Z" fill="#E3A189"/>
<path d="M207 401L200.5 382.5L210 323L208.5 365.5L207 401Z" fill="#FBBDA4"/>
<path d="M297 324L283.5 332L378 336.5L297 324Z" fill="#B79081"/>
<path d="M377 358L328.5 333.5L378 336.5L377 358Z" fill="#A46C56"/>
<path d="M545 299.5L536.5 238L548 243.5L545 299.5Z" fill="#B48A74"/>
<path d="M560.5 215.5L536.5 238L563 253L560.5 215.5Z" fill="#323234"/>
<path d="M543.5 331L547.5 243.5L563.5 252.5L543.5 331Z" fill="#2B2D2D"/>
<path d="M294.5 360.5L284 332L330.5 333L294.5 360.5Z" fill="#C4907A"/>
<path d="M446.5 328L422.5 353L432 360L446.5 328Z" fill="#C78263"/>
<path d="M495 330L445.5 328.5L431.5 360.5L495 330Z" fill="#D89E80"/>
<path d="M481.5 350L467.5 356.5H488L481.5 350Z" fill="#654C45"/>
<path d="M536.5 440L480.5 502L527.5 472L536.5 440Z" fill="#AC725E"/>
<path d="M460.5 556L480.5 502L478.5 558L460.5 556Z" fill="#4E3B34"/>
<path d="M321 546.5L281 503L324.5 508.5L321 546.5Z" fill="#87644F"/>
<path d="M423 496.5L403.5 480.5L423.5 460.5L423 496.5Z" fill="#4D4B4E"/>
<path d="M364.5 351.5L342.5 352.5L377 358L364.5 351.5Z" fill="#E8BCB1"/>
<path d="M401 399L363.5 421L400 431L401 399Z" fill="#F3AF98"/>
<path d="M400 430.5L362.5 420.5L382.5 442.5L400 430.5Z" fill="#F7B9A0"/>
<path d="M429 451.5L443.5 426L450.5 449L429 451.5Z" fill="#D9A08D"/>
<path d="M358.5 471.5L359.5 451.5L384 463.5L358.5 471.5Z" fill="#C8A28B"/>
<path d="M450.5 449L428 451.5L451 459.5L450.5 449Z" fill="#E19B8C"/>
<path d="M553 187.5L515.5 134L559.5 216L553 187.5Z" fill="#191C21"/>
<path d="M556 346H545.5L542.5 375L556 346Z" fill="#D6997D"/>
<path d="M543.5 408L536 441.5L541.5 354L543.5 408Z" fill="#895943"/>
<path d="M541 353L545.5 346L542.5 375L541 353Z" fill="#A16766"/>
<path d="M205.5 303.5L196.5 314.5L218.5 305L205.5 303.5Z" fill="#D88660"/>
<path d="M229.5 394.5L208.5 368L221.5 336.5L229.5 394.5Z" fill="#FBBEAB"/>
<defs>
<linearGradient id="paint0_linear_8_94" x1="381" y1="-102.5" x2="375" y2="1253" gradientUnits="userSpaceOnUse">
<stop stop-color="#A29060"/>
</linearGradient>
</defs>
</svg>
